HIERARCHY
ROOT Hips
{
	OFFSET 0.000000 0.000000 0.000000
	CHANNELS 6 Xposition Yposition Zposition Zrotation Yrotation Xrotation 
	JOINT LHipJoint
	{
		OFFSET 0.000000 0.000000 0.000000
		CHANNELS 3 Zrotation Yrotation Xrotation
		JOINT LeftUpLeg
		{
			OFFSET 1.363060 -1.794630 0.839290
			CHANNELS 3 Zrotation Yrotation Xrotation
			JOINT LeftLeg
			{
				OFFSET 2.448110 -6.726130 0.000000
				CHANNELS 3 Zrotation Yrotation Xrotation
				JOINT LeftFoot
				{
					OFFSET 2.562200 -7.039590 0.000000
					CHANNELS 3 Zrotation Yrotation Xrotation
					JOINT LeftToeBase
					{
						OFFSET 0.157640 -0.433110 2.322550
						CHANNELS 3 Zrotation Yrotation Xrotation
						End Site
						{
							OFFSET 0.000000 0.000000 0.000000
						}
					}
				}
			}
		}
	}
	JOINT RHipJoint
	{
		OFFSET 0.000000 0.000000 0.000000
		CHANNELS 3 Zrotation Yrotation Xrotation
		JOINT RightUpLeg
		{
			OFFSET -1.305520 -1.794630 0.839290
			CHANNELS 3 Zrotation Yrotation Xrotation
			JOINT RightLeg
			{
				OFFSET -2.542530 -6.985550 0.000000
				CHANNELS 3 Zrotation Yrotation Xrotation
				JOINT RightFoot
				{
					OFFSET -2.568260 -7.056230 0.000000
					CHANNELS 3 Zrotation Yrotation Xrotation
					JOINT RightToeBase
					{
						OFFSET -0.164730 -0.452590 2.363150
						CHANNELS 3 Zrotation Yrotation Xrotation
						End Site
						{
							OFFSET 0.000000 0.000000 0.000000
						}
					}
				}
			}
		}
	}
	JOINT LowerBack
	{
		OFFSET 0.000000 0.000000 0.000000
		CHANNELS 3 Zrotation Yrotation Xrotation
		JOINT Spine
		{
			OFFSET 0.028270 2.035590 -0.193380
			CHANNELS 3 Zrotation Yrotation Xrotation
			JOINT Spine1
			{
				OFFSET 0.056720 2.048850 -0.042750
				CHANNELS 3 Zrotation Yrotation Xrotation
				JOINT Neck
				{
					OFFSET 0.000000 0.000000 0.000000
					CHANNELS 3 Zrotation Yrotation Xrotation
					JOINT Neck1
					{
						OFFSET -0.054170 1.746240 0.172020
						CHANNELS 3 Zrotation Yrotation Xrotation
						JOINT Head
						{
							OFFSET 0.104070 1.761360 -0.123970
							CHANNELS 3 Zrotation Yrotation Xrotation
							End Site
							{
								OFFSET 0.000000 0.000000 0.000000
							}
						}
					}
				}
				JOINT LeftShoulder
				{
					OFFSET 0.000000 0.000000 0.000000
					CHANNELS 3 Zrotation Yrotation Xrotation
					JOINT LeftArm
					{
						OFFSET 3.362410 1.200890 -0.311210
						CHANNELS 3 Zrotation Yrotation Xrotation
						JOINT LeftForeArm
						{
							OFFSET 4.983000 -0.000000 -0.000000
							CHANNELS 3 Zrotation Yrotation Xrotation
							JOINT LeftHand
							{
								OFFSET 3.483560 -0.000000 -0.000000
								CHANNELS 3 Zrotation Yrotation Xrotation
								JOINT LeftFingerBase
								{
									OFFSET 0.000000 0.000000 0.000000
									CHANNELS 3 Zrotation Yrotation Xrotation
									JOINT LeftHandIndex1
									{
										OFFSET 0.715260 -0.000000 -0.000000
										CHANNELS 3 Zrotation Yrotation Xrotation
										End Site
										{
											OFFSET 0.000000 0.000000 0.000000
										}
									}
								}
								JOINT LThumb
								{
									OFFSET 0.000000 0.000000 0.000000
									CHANNELS 3 Zrotation Yrotation Xrotation
									End Site
									{
										OFFSET 0.000000 0.000000 0.000000
									}
								}
							}
						}
					}
				}
				JOINT RightShoulder
				{
					OFFSET 0.000000 0.000000 0.000000
					CHANNELS 3 Zrotation Yrotation Xrotation
					JOINT RightArm
					{
						OFFSET -3.136600 1.374050 -0.404650
						CHANNELS 3 Zrotation Yrotation Xrotation
						JOINT RightForeArm
						{
							OFFSET -5.241900 -0.000000 -0.000000
							CHANNELS 3 Zrotation Yrotation Xrotation
							JOINT RightHand
							{
								OFFSET -3.444170 -0.000000 -0.000000
								CHANNELS 3 Zrotation Yrotation Xrotation
								JOINT RightFingerBase
								{
									OFFSET 0.000000 0.000000 0.000000
									CHANNELS 3 Zrotation Yrotation Xrotation
									JOINT RightHandIndex1
									{
										OFFSET -0.622530 -0.000000 -0.000000
										CHANNELS 3 Zrotation Yrotation Xrotation
										End Site
										{
											OFFSET 0.000000 0.000000 0.000000
										}
									}
								}
								JOINT RThumb
								{
									OFFSET 0.000000 0.000000 0.000000
									CHANNELS 3 Zrotation Yrotation Xrotation
									End Site
									{
										OFFSET 0.000000 0.000000 0.000000
									}
								}
							}
						}
					}
				}
			}
		}
	}
}
MOTION
Frames: 4
Frame Time: 0.008333
1.328358 17.293970 1.209305 8.079908 -51.993611 5.887900 -8.377878 2.500767 8.348475 -6.032967 -18.268616 -13.896715 -2.591082 -1.641447 -3.508199 0.167031 4.056067 6.431957 1.500900 0.000000 -47.144800 12.046676 -2.668227 -1.280890 -0.013122 -27.865955 -2.760996 1.330286 1.217834 -4.007686 -3.256200 -21.061228 5.721535 -6.207500 -0.000000 -68.758800 -5.784329 0.710934 -8.513891 -0.884240 1.457087 -4.829070 -0.342335 1.480282 -2.941473 -4.349602 -2.490385 -2.534711 -1.557520 -0.197145 1.456780 0.000000 0.000000 0.000000 6.691488 -1.253266 -6.149881 -96.000293 -31.815842 41.836644 178.515608 -58.491069 179.693227 14.211277 -36.243939 -5.039887 -0.145284 2.043936 -0.000000 0.000000 0.000000 0.000000 0.000000 0.000000 0.000000 -9.605949 2.028029 5.368639 -4.236144 58.287878 -56.875056 -0.862802 3.883583 -0.009263 2.093812 -24.003383 -0.450407 0.001142 0.280017 0.000000 0.000000 0.000000 0.000000 0.000000 0.000000 0.000000 
1.319380 17.294770 1.210210 8.058167 -52.371708 5.778059 -8.402516 2.531248 8.270977 -6.088727 -17.975810 -13.551377 -2.582254 -1.647660 -3.728481 0.178498 4.141654 6.429470 1.518000 -0.000000 -47.091300 12.034598 -2.673366 -1.244998 -0.052871 -27.519283 -2.537518 1.293097 1.221111 -4.090281 -3.265676 -21.140870 5.779530 -6.259800 0.000000 -68.760500 -5.810955 0.645234 -8.443400 -0.918620 1.382473 -4.905066 -0.521622 1.421204 -3.328715 -3.919489 -2.263845 -2.150722 -1.554286 -0.203487 1.568154 0.000000 0.000000 0.000000 6.719792 -1.481332 -5.924230 -95.683123 -31.118821 41.137274 178.543816 -58.404625 179.692770 14.292407 -36.138666 -5.055593 -0.150527 2.049283 -0.000000 0.000000 0.000000 0.000000 0.000000 0.000000 0.000000 -9.673426 2.397095 4.507005 1.800583 58.413089 -50.106006 -1.239852 8.078397 -0.000369 1.575513 -20.326062 -0.286519 -0.010347 0.167091 0.000000 0.000000 0.000000 0.000000 0.000000 0.000000 0.000000 
1.311359 17.296021 1.211642 8.027027 -52.822362 5.657505 -8.433423 2.566148 8.180081 -6.155972 -17.604019 -13.182436 -2.573434 -1.654496 -3.954633 0.188600 4.218503 6.426027 1.532600 0.000000 -47.048299 12.018709 -2.681018 -1.201701 -0.089997 -27.141097 -2.334835 1.256465 1.221382 -4.130724 -3.272526 -21.199433 5.830975 -6.303500 -0.000001 -68.771401 -5.831564 0.581015 -8.367224 -0.959238 1.304763 -4.990041 -0.737883 1.357940 -3.753955 -3.364980 -1.821803 -1.686716 -1.613179 -0.214702 1.699217 0.000000 0.000000 0.000000 6.767325 -1.701711 -5.682209 -95.337636 -30.389105 40.441539 178.577252 -58.301398 179.692030 14.449074 -36.077794 -5.105550 -0.159141 2.057645 -0.000000 0.000000 0.000000 0.000000 0.000000 0.000000 0.000000 -9.286337 2.866736 3.650252 7.201794 58.087541 -43.275958 -1.683395 12.358506 0.002166 0.135072 -15.718044 -0.019652 -0.007832 0.020859 -0.000000 0.000000 0.000000 0.000000 0.000000 0.000000 0.000000 
1.304076 17.297539 1.213490 7.988426 -53.347057 5.524905 -8.469002 2.607255 8.081699 -6.232410 -17.158043 -12.797884 -2.564412 -1.661726 -4.183452 0.197814 4.288195 6.418824 1.544800 0.000000 -47.016100 11.999671 -2.690697 -1.149172 -0.123063 -26.744164 -2.158097 1.221922 1.220277 -4.133590 -3.275739 -21.231891 5.871128 -6.335000 -0.000000 -68.788500 -5.845527 0.510210 -8.297328 -0.996565 1.218120 -5.075592 -0.948777 1.282474 -4.167402 -2.742262 -1.248899 -1.172870 -1.712425 -0.228784 1.841650 0.000000 0.000000 0.000000 6.801159 -1.873428 -5.434628 -94.969476 -29.660571 39.763737 178.608209 -58.182147 179.690791 14.677740 -36.061028 -5.188282 -0.170393 2.068070 -0.000000 0.000000 0.000000 0.000000 0.000000 0.000000 0.000000 -8.567823 3.349810 2.840759 11.867074 57.550719 -37.427551 -2.144157 16.604720 -0.007024 -2.149962 -10.805438 0.201440 0.009205 -0.140606 -0.000000 0.000000 0.000000 0.000000 0.000000 0.000000 0.000000 
